<svg version="1.0" xmlns="http://www.w3.org/2000/svg"
     width="144.000000pt" height="144.000000pt" viewBox="0 0 144.000000 144.000000"
     preserveAspectRatio="xMidYMid meet">

    <g transform="translate(0.000000,144.000000) scale(0.100000,-0.100000)"
       fill="#f5f5f5" stroke="none">
        <path d="M1170 1173 c0 -14 11 -21 43 -29 35 -7 45 -15 60 -46 17 -34 17 -47
8 -125 -15 -124 -14 -138 14 -171 l25 -30 -25 -38 c-28 -41 -29 -55 -15 -171
15 -116 1 -153 -62 -172 -51 -15 -65 -41 -23 -41 43 0 93 27 109 59 17 32 19
113 7 211 -9 68 6 102 51 121 50 20 61 49 19 49 -10 0 -31 10 -45 21 l-28 22
7 127 c6 107 5 131 -9 158 -20 39 -49 58 -98 67 -33 6 -38 5 -38 -12z"/>
        <path d="M213 1145 c-56 -24 -67 -61 -59 -205 7 -143 0 -165 -60 -176 -44 -8
-43 -34 3 -46 57 -15 64 -37 57 -175 -9 -168 8 -203 106 -219 38 -6 42 -5 38
12 -2 10 -12 20 -23 22 -91 14 -109 60 -84 211 12 76 6 112 -27 150 -20 24
-22 30 -9 35 9 3 22 21 30 40 12 29 13 52 3 141 -10 93 -9 110 5 140 11 23 26
37 44 41 55 12 63 16 63 30 0 18 -44 18 -87 -1z"/>
        <path d="M540 980 c-39 -33 -33 -41 7 -10 30 24 76 26 97 5 17 -18 30 -20 20
-3 -4 7 -3 8 5 4 6 -4 9 -12 6 -17 -4 -5 1 -9 10 -9 9 0 13 -5 10 -11 -10 -14
3 -59 16 -59 8 0 7 6 -2 18 -11 14 -10 14 8 -2 21 -18 23 -18 29 -1 8 20 -9
51 -25 48 -6 -2 -11 4 -11 12 0 22 -60 55 -100 55 -24 0 -46 -10 -70 -30z"/>
        <path d="M542 943 c-23 -20 -44 -81 -23 -69 6 4 11 14 11 22 0 8 12 26 26 39
30 28 17 34 -14 8z"/>
        <path d="M642 929 c2 -7 10 -15 17 -17 8 -3 12 1 9 9 -2 7 -10 15 -17 17 -8 3
-12 -1 -9 -9z"/>
        <path d="M800 894 c-19 -8 -58 -39 -86 -69 -46 -51 -54 -55 -95 -55 -40 0
-109 29 -109 46 0 4 7 1 15 -6 12 -10 24 -10 54 -1 45 13 66 34 57 57 -8 22
-83 14 -120 -12 -56 -41 -36 -103 35 -109 34 -2 49 -18 29 -30 -22 -14 26 -41
64 -37 36 4 52 21 19 18 -10 0 -18 5 -18 13 0 8 10 15 23 16 12 1 22 -2 22 -7
0 -9 35 -10 68 -2 24 7 31 24 9 24 -7 0 -13 10 -15 23 -1 18 8 28 43 45 48 23
81 63 71 87 -7 19 -21 18 -66 -1z m-6 -40 c3 -8 2 -12 -4 -9 -6 3 -10 10 -10
16 0 14 7 11 14 -7z"/>
        <path d="M237 884 c-4 -4 6 -23 22 -43 51 -65 53 -75 25 -102 -29 -27 -79
-107 -71 -115 2 -3 30 18 61 46 l56 52 26 -31 c17 -20 35 -31 52 -31 l26 0
-25 28 c-53 58 -53 57 -23 107 21 37 24 49 14 55 -8 5 -21 -2 -38 -21 l-24
-30 -24 33 c-36 49 -62 66 -77 52z"/>
        <path d="M911 876 c-6 -7 -16 -47 -21 -87 -13 -104 -12 -129 4 -129 17 0 28
24 20 44 -3 8 10 31 30 53 20 21 34 30 30 21 -7 -21 43 -108 62 -108 8 0 23
20 34 45 21 48 67 115 80 115 29 0 65 -188 51 -265 -7 -35 -6 -44 3 -35 6 6
13 53 14 106 6 141 -21 224 -71 224 -23 0 -80 -60 -97 -101 -16 -38 -23 -37
-44 8 -20 42 -21 40 63 80 29 14 76 29 105 34 50 8 50 8 -15 5 -45 -2 -85 -12
-124 -30 -32 -14 -59 -25 -60 -24 -33 59 -45 67 -64 44z m29 -61 c0 -8 -4 -15
-10 -15 -5 0 -7 7 -4 15 4 8 8 15 10 15 2 0 4 -7 4 -15z"/>
        <path d="M767 784 c-7 -8 32 -84 43 -84 16 0 22 21 10 35 -7 8 -9 15 -6 15 4
0 2 9 -4 20 -10 19 -31 26 -43 14z"/>
        <path d="M740 703 c-14 -3 -28 -11 -33 -18 -11 -20 -93 -30 -113 -14 -14 11
-20 9 -41 -15 -17 -20 -24 -38 -21 -56 3 -19 -2 -31 -15 -40 -29 -18 -7 -32
44 -28 42 3 44 4 50 41 4 26 2 40 -8 45 -7 4 12 9 45 10 67 3 90 -10 106 -59
10 -32 14 -34 59 -37 37 -2 47 0 47 12 0 9 -9 21 -20 28 -11 7 -20 18 -20 24
0 18 -42 114 -49 113 -3 -1 -17 -4 -31 -6z"/>
        <path d="M800 679 c0 -5 5 -7 10 -4 6 3 10 8 10 11 0 2 -4 4 -10 4 -5 0 -10
-5 -10 -11z"/>
    </g>
</svg>
